<svg width="128" height="64" viewBox="0 0 128 64" fill="none" xmlns="http://www.w3.org/2000/svg">
<path d="M47.9811 0L54.0751 0C54.4389 0.597692 54.7928 1.20099 55.1364 1.80963C53.3157 2.04459 51.5188 2.35608 49.7494 2.74075C49.186 1.81213 48.5965 0.898156 47.9811 0Z" fill="white"/>
<path d="M27.8571 0L35.2425 0C36.923 1.81197 38.4519 3.74088 39.8207 5.76684C38.2005 6.40953 36.6128 7.11646 35.0607 7.88451C33.6666 5.9127 32.0994 4.04965 30.369 2.31926C29.5599 1.51016 28.7218 0.73674 27.8571 0Z" fill="white"/>
<path d="M0 6.40651L0 1.28547C8.27272 1.4383 16.1741 4.79104 22.0356 10.6526C23.1118 11.7287 24.1033 12.8736 25.0061 14.0769C23.6386 15.1041 22.3137 16.1848 21.0343 17.3159C20.2431 16.2442 19.3687 15.2264 18.4152 14.273C13.5139 9.37164 6.91467 6.5586 0 6.40651Z" fill="white"/>
<path d="M0 21.7601V16.6401C0.016073 16.64 0.0321472 16.64 0.0482227 16.64C2.14937 16.64 4.22995 17.0539 6.17116 17.8579C8.11236 18.662 9.87619 19.8406 11.3619 21.3263C12.3646 22.3289 13.2273 23.4583 13.9295 24.6833C12.6924 26.1893 11.5226 27.7528 10.425 29.3692C10.3299 29.0675 10.2215 28.7696 10.1 28.4764C9.55326 27.1564 8.75185 25.957 7.74154 24.9467C6.73125 23.9364 5.53185 23.135 4.21182 22.5882C2.8918 22.0414 1.477 21.76 0.0482227 21.76C0.0321466 21.76 0.0160724 21.76 0 21.7601Z" fill="white"/>
<path d="M0 38.403L0 33.2827C16.76 33.4375 32.8003 40.1624 44.6631 52.0252C48.296 55.6581 51.447 59.6828 54.0751 64H47.9811C45.9448 61.028 43.6262 58.2291 41.0427 55.6456C30.1401 44.743 15.4021 38.5576 0 38.403Z" fill="white"/>
<path d="M0 53.76L0 48.64C0.0160734 48.64 0.0321476 48.64 0.0482227 48.64C12.7786 48.64 24.9876 53.6971 33.9894 62.6989C34.416 63.1255 34.8337 63.5593 35.2425 64H27.8571C20.128 57.4143 10.2765 53.76 0.0482227 53.76C0.0321475 53.76 0.0160733 53.76 0 53.76Z" fill="white"/>
<path d="M78.8353 64H72.7413C75.3694 59.6828 78.5205 55.6581 82.1534 52.0252C94.1557 40.0228 110.434 33.28 127.408 33.28C127.606 33.28 127.803 33.2809 128 33.2827V38.403C127.803 38.401 127.606 38.4 127.408 38.4C111.792 38.4 96.8159 44.6034 85.7738 55.6455C83.1903 58.2291 80.8716 61.0279 78.8353 64Z" fill="white"/>
<path d="M100.239 64H92.854C93.2628 63.5593 93.6805 63.1255 94.1071 62.6989C103.097 53.7085 115.287 48.6528 128 48.64V53.76C117.789 53.7715 107.956 57.4247 100.239 64Z" fill="white"/>
<path d="M128 16.6401V21.7601C126.588 21.7664 125.19 22.0476 123.885 22.5882C122.565 23.135 121.365 23.9364 120.355 24.9467C119.345 25.957 118.543 27.1564 117.996 28.4764C117.688 29.2213 117.464 29.9964 117.327 30.7871C116.188 29.0103 114.964 27.2934 113.66 25.6424C114.437 24.0448 115.475 22.5856 116.735 21.3263C118.22 19.8406 119.984 18.662 121.925 17.8579C123.852 17.06 125.915 16.6464 128 16.6401Z" fill="white"/>
<path d="M128 1.28547V6.40651C127.803 6.40217 127.606 6.4 127.408 6.4C120.279 6.4 113.442 9.23199 108.401 14.273C107.448 15.2264 106.573 16.2442 105.782 17.3159C104.503 16.1848 103.178 15.1041 101.81 14.0769C102.713 12.8736 103.705 11.7287 104.781 10.6526C110.782 4.65142 118.921 1.28 127.408 1.28C127.606 1.28 127.803 1.28182 128 1.28547Z" fill="white"/>
<path d="M92.854 0L100.239 0C99.3747 0.736738 98.5366 1.51016 97.7275 2.31926C95.8578 4.18894 94.1786 6.21351 92.7024 8.36281C91.1706 7.57285 89.6029 6.84291 88.0022 6.17609C89.44 4.00034 91.0606 1.9336 92.854 0Z" fill="white"/>
<path d="M78.8353 0C78.22 0.898156 77.6304 1.81213 77.0671 2.74075C75.2976 2.35608 73.5008 2.04459 71.68 1.80963C72.0237 1.20099 72.3775 0.597692 72.7413 0L78.8353 0Z" fill="white"/>
<path d="M21.7738 23.6455C32.8159 12.6034 47.7923 6.4 63.4082 6.4C79.0242 6.4 94.0005 12.6034 105.043 23.6456C108.407 27.0098 111.322 30.7393 113.749 34.7407C115.519 34.3561 117.316 34.0446 119.136 33.8096C116.31 28.8047 112.799 24.1611 108.663 20.0252C96.6607 8.02284 80.3821 1.28 63.4082 1.28C46.4344 1.28 30.1557 8.02283 18.1534 20.0252C14.0175 24.161 10.5061 28.8047 7.68 33.8096C9.50078 34.0446 11.2976 34.3561 13.0671 34.7407C15.4944 30.7393 18.4095 27.0098 21.7738 23.6455Z" fill="white"/>
<path d="M53.9964 60.4764C53.6879 61.2213 53.4638 61.9964 53.3272 62.7871C52.1881 61.0103 50.9636 59.2934 49.6596 57.6424C50.4365 56.0448 51.4752 54.5856 52.7345 53.3263C54.2202 51.8406 55.9841 50.662 57.9253 49.8579C59.8665 49.0538 61.9471 48.64 64.0482 48.64C66.1494 48.64 68.2299 49.0539 70.1712 49.8579C72.1124 50.662 73.8762 51.8405 75.3619 53.3263C76.3646 54.3289 77.2273 55.4583 77.9295 56.6833C76.6924 58.1893 75.5226 59.7528 74.4249 61.3692C74.3298 61.0675 74.2215 60.7696 74.1 60.4764C73.5533 59.1564 72.7518 57.957 71.7415 56.9467C70.7312 55.9364 69.5318 55.135 68.2118 54.5882C66.8918 54.0414 65.477 53.76 64.0482 53.76C62.6194 53.76 61.2046 54.0414 59.8846 54.5882C58.5646 55.135 57.3652 55.9364 56.3549 56.9467C55.3446 57.957 54.5432 59.1564 53.9964 60.4764Z" fill="white"/>
<path d="M44.4012 46.273C43.4477 47.2264 42.5733 48.2441 41.7821 49.3159C40.5027 48.1848 39.1778 47.1041 37.8104 46.0769C38.7131 44.8736 39.7047 43.7287 40.7808 42.6526C46.782 36.6514 54.9213 33.28 63.4082 33.28C71.8951 33.28 80.0345 36.6514 86.0356 42.6526C87.1118 43.7287 88.1033 44.8736 89.0061 46.0769C87.6386 47.1041 86.3137 48.1848 85.0343 49.3159C84.2431 48.2441 83.3687 47.2264 82.4152 46.273C77.3743 41.232 70.5372 38.4 63.4082 38.4C56.2792 38.4 49.4422 41.232 44.4012 46.273Z" fill="white"/>
<path d="M33.7275 34.3193C31.8578 36.1889 30.1786 38.2135 28.7024 40.3628C27.1706 39.5728 25.6029 38.8429 24.0023 38.1761C25.7677 35.5044 27.8089 32.9971 30.1071 30.6989C39.1088 21.6971 51.3178 16.64 64.0482 16.64C76.7786 16.64 88.9876 21.6971 97.9894 30.6989C100.17 32.8794 102.119 35.2481 103.821 37.7668C102.201 38.4095 100.613 39.1165 99.0607 39.8845C97.6666 37.9127 96.0993 36.0496 94.369 34.3193C86.3274 26.2777 75.4207 21.76 64.0482 21.76C52.6757 21.76 41.769 26.2777 33.7275 34.3193Z" fill="white"/>
</svg>
