<svg width="92" height="92" viewBox="0 0 92 92" fill="none" xmlns="http://www.w3.org/2000/svg">
<path d="M46.0003 11C43.6298 11 41.7146 12.9551 41.7146 15.375V18C31.9378 20.0234 24.5718 28.8555 24.5718 39.4375V42.0078C24.5718 48.4336 22.2548 54.6406 18.0762 59.4531L17.0852 60.5879C15.9602 61.873 15.6923 63.7188 16.3753 65.291C17.0584 66.8633 18.5986 67.875 20.2861 67.875H71.7146C73.4021 67.875 74.9289 66.8633 75.6253 65.291C76.3218 63.7188 76.0405 61.873 74.9155 60.5879L73.9245 59.4531C69.7459 54.6406 67.4289 48.4473 67.4289 42.0078V39.4375C67.4289 28.8555 60.0628 20.0234 50.2861 18V15.375C50.2861 12.9551 48.3709 11 46.0003 11ZM52.0673 78.4434C53.6745 76.8027 54.5718 74.5742 54.5718 72.25H37.4289C37.4289 74.5742 38.3262 76.8027 39.9334 78.4434C41.5405 80.084 43.7236 81 46.0003 81C48.2771 81 50.4602 80.084 52.0673 78.4434Z" fill="#323232"/>
</svg>
