<svg width="92" height="92" viewBox="0 0 92 92" fill="none" xmlns="http://www.w3.org/2000/svg">
<path d="M76.9908 56.4466C76.9832 54.348 76.3556 52.3001 75.189 50.5675C74.0225 48.8349 72.3708 47.4975 70.4474 46.728L76.8875 22.2568C77.0221 21.7356 77.0361 21.1899 76.9286 20.6624C76.821 20.1348 76.5948 19.6396 76.2676 19.2154C75.9331 18.8179 75.515 18.5017 75.0442 18.2899C74.5733 18.0782 74.0617 17.9763 73.5469 17.9918H26.365L25.2285 13.587C25.0309 12.8421 24.5961 12.1844 23.9919 11.7165C23.3876 11.2485 22.6479 10.9966 21.8879 11H15V17.9918H19.236L27.777 50.3637C27.9788 51.1264 28.4291 51.7972 29.0544 52.267C29.6798 52.7367 30.4434 52.9777 31.2209 52.9507H66.659C67.5724 52.9507 68.4484 53.319 69.0943 53.9746C69.7401 54.6302 70.103 55.5194 70.103 56.4466C70.103 57.3737 69.7401 58.2629 69.0943 58.9185C68.4484 59.5741 67.5724 59.9424 66.659 59.9424H21.8879C20.9745 59.9424 20.0985 60.3108 19.4526 60.9664C18.8068 61.622 18.4439 62.5112 18.4439 63.4383C18.4439 64.3655 18.8068 65.2547 19.4526 65.9103C20.0985 66.5659 20.9745 66.9342 21.8879 66.9342H25.9517C25.3853 68.5183 25.2033 70.2176 25.4211 71.8883C25.6389 73.5589 26.2501 75.1517 27.203 76.5317C28.1558 77.9117 29.4222 79.0383 30.895 79.8161C32.3677 80.5939 34.0035 81 35.6636 81C37.3238 81 38.9595 80.5939 40.4323 79.8161C41.905 79.0383 43.1714 77.9117 44.1243 76.5317C45.0771 75.1517 45.6883 73.5589 45.9061 71.8883C46.1239 70.2176 45.9419 68.5183 45.3755 66.9342H53.5032C52.9876 68.3766 52.7901 69.9163 52.9246 71.4447C53.0591 72.973 53.5224 74.4528 54.2817 75.7796C55.041 77.1064 56.0779 78.2479 57.3192 79.1236C58.5605 79.9993 59.976 80.5878 61.4658 80.8477C62.9556 81.1075 64.4835 81.0323 65.9415 80.6275C67.3996 80.2226 68.7524 79.4979 69.9045 78.5044C71.0565 77.511 71.9798 76.2731 72.6092 74.8779C73.2385 73.4828 73.5586 71.9645 73.5469 70.4301C73.5405 68.624 73.0654 66.8515 72.1693 65.2912C73.642 64.3486 74.8562 63.0437 75.6991 61.4974C76.542 59.9512 76.9864 58.2138 76.9908 56.4466ZM35.6636 73.926C34.9825 73.926 34.3166 73.721 33.7503 73.3368C33.1839 72.9527 32.7425 72.4067 32.4818 71.7679C32.2212 71.1291 32.153 70.4262 32.2859 69.7481C32.4187 69.07 32.7467 68.447 33.2284 67.9581C33.71 67.4692 34.3237 67.1363 34.9917 67.0014C35.6598 66.8665 36.3523 66.9357 36.9816 67.2003C37.6108 67.4649 38.1487 67.913 38.5271 68.4879C38.9056 69.0628 39.1075 69.7387 39.1075 70.4301C39.1075 71.3573 38.7447 72.2465 38.0988 72.9021C37.453 73.5577 36.577 73.926 35.6636 73.926ZM63.2151 73.926C62.534 73.926 61.8681 73.721 61.3018 73.3368C60.7354 72.9527 60.294 72.4067 60.0333 71.7679C59.7727 71.1291 59.7045 70.4262 59.8373 69.7481C59.9702 69.07 60.2982 68.447 60.7799 67.9581C61.2615 67.4692 61.8752 67.1363 62.5432 67.0014C63.2113 66.8665 63.9037 66.9357 64.533 67.2003C65.1623 67.4649 65.7002 67.913 66.0786 68.4879C66.4571 69.0628 66.659 69.7387 66.659 70.4301C66.659 71.3573 66.2962 72.2465 65.6503 72.9021C65.0045 73.5577 64.1285 73.926 63.2151 73.926Z" fill="#323232"/>
</svg>
