<svg width="92" height="92" viewBox="0 0 92 92" fill="none" xmlns="http://www.w3.org/2000/svg">
<path d="M78.817 33.7818C79.2547 34.9715 78.8854 36.2979 77.9417 37.1457L72.0198 42.5335C72.1702 43.6685 72.2523 44.8308 72.2523 46.0068C72.2523 47.1828 72.1702 48.3452 72.0198 49.4802L77.9417 54.8679C78.8854 55.7158 79.2547 57.0422 78.817 58.2319C78.2153 59.8591 77.4904 61.4181 76.6561 62.9223L76.0133 64.0299C75.1107 65.5341 74.0986 66.9562 72.9908 68.2963C72.1839 69.2809 70.8436 69.6091 69.64 69.2262L62.0222 66.8058C60.1895 68.2143 58.1653 69.3903 56.0044 70.2792L54.2949 78.0873C54.0213 79.3317 53.064 80.3163 51.8057 80.5214C49.9184 80.8359 47.9763 81 45.9932 81C44.01 81 42.068 80.8359 40.1806 80.5214C38.9223 80.3163 37.965 79.3317 37.6915 78.0873L35.9819 70.2792C33.821 69.3903 31.7968 68.2143 29.9642 66.8058L22.36 69.2399C21.1564 69.6228 19.8161 69.2809 19.0092 68.31C17.9014 66.9699 16.8893 65.5478 15.9867 64.0436L15.3439 62.9359C14.5096 61.4317 13.7847 59.8728 13.183 58.2456C12.7453 57.0559 13.1146 55.7294 14.0583 54.8816L19.9802 49.4938C19.8298 48.3452 19.7477 47.1828 19.7477 46.0068C19.7477 44.8308 19.8298 43.6685 19.9802 42.5335L14.0583 37.1457C13.1146 36.2979 12.7453 34.9715 13.183 33.7818C13.7847 32.1545 14.5096 30.5956 15.3439 29.0914L15.9867 27.9838C16.8893 26.4796 17.9014 25.0574 19.0092 23.7173C19.8161 22.7328 21.1564 22.4046 22.36 22.7875L29.9778 25.2079C31.8105 23.7994 33.8347 22.6234 35.9956 21.7345L37.7051 13.9264C37.9787 12.682 38.936 11.6974 40.1943 11.4923C42.0816 11.1641 44.0237 11 46.0068 11C47.9899 11 49.932 11.1641 51.8194 11.4786C53.0777 11.6837 54.035 12.6683 54.3085 13.9127L56.0181 21.7208C58.179 22.6097 60.2032 23.7857 62.0358 25.1942L69.6537 22.7738C70.8572 22.3909 72.1976 22.7328 73.0045 23.7037C74.1123 25.0438 75.1244 26.4659 76.027 27.9701L76.6698 29.0777C77.5041 30.5819 78.2289 32.1408 78.8307 33.7681L78.817 33.7818ZM46.0068 56.9465C52.0519 56.9465 56.9481 52.051 56.9481 46.0068C56.9481 39.9627 52.0519 35.0672 46.0068 35.0672C39.9618 35.0672 35.0655 39.9627 35.0655 46.0068C35.0655 52.051 39.9618 56.9465 46.0068 56.9465Z" fill="#323232"/>
</svg>
