<svg width="92" height="92" viewBox="0 0 92 92" fill="none" xmlns="http://www.w3.org/2000/svg">
<path d="M17 30.7273C17 27.5642 19.5101 25 22.6066 25H68.3934C71.4899 25 74 27.5642 74 30.7273C74 33.8904 71.4899 36.4545 68.3934 36.4545H22.6066C19.5101 36.4545 17 33.8904 17 30.7273Z" fill="#323232"/>
<path d="M17 46C17 42.8369 19.5101 40.2727 22.6066 40.2727H68.3934C71.4899 40.2727 74 42.8369 74 46C74 49.1631 71.4899 51.7273 68.3934 51.7273H22.6066C19.5101 51.7273 17 49.1631 17 46Z" fill="#323232"/>
<path d="M17 61.2727C17 58.1096 19.5101 55.5455 22.6066 55.5455H68.3934C71.4899 55.5455 74 58.1096 74 61.2727C74 64.4358 71.4899 67 68.3934 67H22.6066C19.5101 67 17 64.4358 17 61.2727Z" fill="#323232"/>
</svg>
